# xmcd
#
# Track frame offsets: 
#        150
#        15147
#        28240
#        41609
#        58902
#        74972
#        88503
#        98140
#        113074
#        131390
#        147763
#        160554
#        172371
#        193227
#        210292
#        224609
#        245361
#        266439
#
# Disc length: 3833 seconds
#
# Revision: 0
# Processed by: cddbd v1.5.1PL0 Copyright (c) Steve Scherf et al.
# Submitted via: ExactAudioCopy v0.95a5
#
DISCID=060ef712
DTITLE=Stylistics - Stylistics: The Ultimate Collection [CD1]
DYEAR=2005
DGENRE=R&B/Soul
TTITLE0=You're A Big Girl Now
TTITLE1=Stop Look Listen (To Your Heart)
TTITLE2=You Are Everything
TTITLE3=Betcha By Golly, Wow
TTITLE4=People Make The World Go Round
TTITLE5=Country Living
TTITLE6=If I Love You
TTITLE7=I'm Stone In Love With You
TTITLE8=Break Up To Make Up
TTITLE9=You'll Never Get To Heaven (If You Break My Heart)
TTITLE10=Peek-A-Boo
TTITLE11=If You Don't Watch Out
TTITLE12=It's Too Late
TTITLE13=You're Right As Rain
TTITLE14=Pieces
TTITLE15=Rockin' Roll Baby
TTITLE16=Only For The Children
TTITLE17=Pay Back Is A Dog
EXTD=
EXTT0=
EXTT1=
EXTT2=
EXTT3=
EXTT4=
EXTT5=
EXTT6=
EXTT7=
EXTT8=
EXTT9=
EXTT10=
EXTT11=
EXTT12=
EXTT13=
EXTT14=
EXTT15=
EXTT16=
EXTT17=
PLAYORDER=
